<?xml version="1.0" standalone="no"?><!-- Generator: Gravit.io --><svg xmlns="http://www.w3.org/2000/svg" xmlns:xlink="http://www.w3.org/1999/xlink" style="isolation:isolate" viewBox="0 0 200 200" width="200" height="200"><defs><clipPath id="_clipPath_UQCArjX5urL4Js9Ia22FrWahz5uy9IAZ"><rect width="200" height="200"/></clipPath></defs><g clip-path="url(#_clipPath_UQCArjX5urL4Js9Ia22FrWahz5uy9IAZ)"><g id="Group"><path d="M 100 31.8 L 100 31.8 C 135.323 31.8 164 60.477 164 95.8 L 164 136 C 164 171.323 135.323 200 100 200 L 100 200 C 64.677 200 36 171.323 36 136 L 36 95.8 C 36 60.477 64.677 31.8 100 31.8 Z" style="stroke:none;fill:#025E84;stroke-miterlimit:10;"/><path d="M 48.8 109 L 151.2 109 C 167.095 109 180 121.905 180 137.8 L 180 137.8 C 180 153.695 167.095 166.6 151.2 166.6 L 48.8 166.6 C 32.905 166.6 20 153.695 20 137.8 L 20 137.8 C 20 121.905 32.905 109 48.8 109 Z" style="stroke:none;fill:#025E84;stroke-miterlimit:10;"/><rect x="36" y="87.1" width="128" height="57.6" transform="matrix(1,0,0,1,0,0)" fill="rgb(6,162,229)"/></g><g id="Group"><rect x="67" y="100" width="13" height="36" transform="matrix(1,0,0,1,0,0)" fill="rgb(2,94,132)"/><rect x="120" y="100" width="13" height="36" transform="matrix(1,0,0,1,0,0)" fill="rgb(2,94,132)"/></g><g id="Group"><rect x="56.25" y="27.574" width="5" height="62" transform="matrix(0.866,-0.5,0.5,0.866,-21.416,37.223)" fill="rgb(2,94,132)"/><path d=" M 30.273 28.25 C 27.651 23.709 29.209 17.894 33.75 15.273 C 38.291 12.651 44.106 14.209 46.727 18.75 C 49.349 23.291 47.791 29.106 43.25 31.727 C 38.709 34.349 32.894 32.791 30.273 28.25 Z " fill="rgb(2,94,132)"/></g><g id="Group"><rect x="135.165" y="27.574" width="5" height="62" transform="matrix(0.866,0.5,-0.5,0.866,47.731,-60.985)" fill="rgb(2,94,132)"/><path d=" M 166.142 28.25 C 168.764 23.709 167.206 17.894 162.665 15.273 C 158.124 12.651 152.309 14.209 149.688 18.75 C 147.066 23.291 148.624 29.106 153.165 31.727 C 157.706 34.349 163.521 32.791 166.142 28.25 Z " fill="rgb(2,94,132)"/></g></g></svg>